<?xml version="1.0" encoding="utf-8"?>
<!-- Generator: Adobe Illustrator 24.3.0, SVG Export Plug-In . SVG Version: 6.00 Build 0)  -->
<svg version="1.1" id="图层_1" xmlns="http://www.w3.org/2000/svg" xmlns:xlink="http://www.w3.org/1999/xlink" x="0px" y="0px"
	 viewBox="0 0 200 200" style="enable-background:new 0 0 200 200;" xml:space="preserve">
<style type="text/css">
	.st0{fill:#666666;}
</style>
<path class="st0" d="M56.6,102.3l40.3-50.5c1.6-2,4.6-2,6.2,0l40.3,50.5c2.1,2.6,0.2,6.4-3.1,6.4h-23.7v55.7c0,2.6-2.1,4.8-4.8,4.8
	H87.5c-2.6,0-4.8-2.1-4.8-4.8v-55.7h-23C56.4,108.7,54.6,104.8,56.6,102.3L56.6,102.3z M42.4,30.8h115.2c2.7,0,4.9,2.2,4.9,4.9
	c0,2.7-2.2,4.9-4.9,4.9H42.4c-2.7,0-4.9-2.2-4.9-4.9C37.5,33,39.7,30.8,42.4,30.8z"/>
</svg>
