<?xml version="1.0" encoding="utf-8"?>
<!-- Generator: Adobe Illustrator 24.3.0, SVG Export Plug-In . SVG Version: 6.00 Build 0)  -->
<svg version="1.1" id="图层_1" xmlns="http://www.w3.org/2000/svg" xmlns:xlink="http://www.w3.org/1999/xlink" x="0px" y="0px"
	 viewBox="0 0 200 200" style="enable-background:new 0 0 200 200;" xml:space="preserve">
<style type="text/css">
	.st0{fill:#666666;}
</style>
<path class="st0" d="M143.4,97.7l-40.3,50.5c-1.6,2-4.6,2-6.2,0L56.7,97.7c-2.1-2.6-0.2-6.4,3.1-6.4h23.7V35.6
	c0-2.6,2.1-4.8,4.8-4.8h24.2c2.6,0,4.8,2.1,4.8,4.8v55.7h23C143.6,91.3,145.4,95.1,143.4,97.7L143.4,97.7z M157.6,169.1H42.4
	c-2.7,0-4.9-2.2-4.9-4.9s2.2-4.9,4.9-4.9h115.2c2.7,0,4.9,2.2,4.9,4.9S160.3,169.1,157.6,169.1z"/>
</svg>
